<mxfile host="app.diagrams.net" modified="2023-08-08T10:34:12.574Z" agent="Mozilla/5.0 (Windows NT 10.0; Win64; x64) AppleWebKit/537.36 (KHTML, like Gecko) Chrome/115.0.0.0 Safari/537.36" etag="RgverdCkYQaHafvkchfK" version="21.6.6" type="github">
  <diagram name="Page-1" id="wQw_KMx7CQy3UjBhMsqz">
    <mxGraphModel dx="4168" dy="2061" grid="1" gridSize="10" guides="1" tooltips="1" connect="1" arrows="1" fold="1" page="1" pageScale="1" pageWidth="827" pageHeight="1169" math="0" shadow="0">
      <root>
        <mxCell id="0" />
        <mxCell id="1" parent="0" />
        <mxCell id="HnynXK6BrLuGzu9qscMR-1" value="" style="whiteSpace=wrap;html=1;aspect=fixed;dashed=1;rounded=0;glass=1;shadow=1;fillColor=#F2F2F2;sketch=1;curveFitting=1;jiggle=2;" parent="1" vertex="1">
          <mxGeometry x="-2220" y="-969" width="770" height="770" as="geometry" />
        </mxCell>
        <mxCell id="HnynXK6BrLuGzu9qscMR-4" value="" style="whiteSpace=wrap;html=1;aspect=fixed;fillColor=#D9777F;strokeColor=#000000;" parent="1" vertex="1">
          <mxGeometry x="-2177" y="-744.73" width="110" height="110" as="geometry" />
        </mxCell>
        <mxCell id="HnynXK6BrLuGzu9qscMR-5" value="&lt;font color=&quot;#ffffff&quot; style=&quot;font-size: 26px;&quot;&gt;Diagramme de Cas d&#39;utilisation&lt;/font&gt;" style="rounded=0;whiteSpace=wrap;html=1;fillColor=#D94350;" parent="1" vertex="1">
          <mxGeometry x="-2194.5" y="-955" width="714.5" height="100" as="geometry" />
        </mxCell>
        <mxCell id="HnynXK6BrLuGzu9qscMR-6" value="" style="whiteSpace=wrap;html=1;aspect=fixed;fillColor=#D92332;" parent="1" vertex="1">
          <mxGeometry x="-2007.87" y="-830" width="510" height="510" as="geometry" />
        </mxCell>
        <mxCell id="HnynXK6BrLuGzu9qscMR-7" value="Acteur : Client" style="shape=umlActor;verticalLabelPosition=bottom;verticalAlign=top;html=1;outlineConnect=0;" parent="1" vertex="1">
          <mxGeometry x="-2165.51" y="-808.73" width="87" height="174" as="geometry" />
        </mxCell>
        <mxCell id="HnynXK6BrLuGzu9qscMR-44" style="edgeStyle=orthogonalEdgeStyle;rounded=0;orthogonalLoop=1;jettySize=auto;html=1;exitX=1;exitY=0.75;exitDx=0;exitDy=0;entryX=0;entryY=0.75;entryDx=0;entryDy=0;" parent="1" source="HnynXK6BrLuGzu9qscMR-10" target="HnynXK6BrLuGzu9qscMR-43" edge="1">
          <mxGeometry relative="1" as="geometry">
            <Array as="points" />
          </mxGeometry>
        </mxCell>
        <mxCell id="HnynXK6BrLuGzu9qscMR-10" value="&lt;font color=&quot;#ffffff&quot;&gt;Réserver une place&lt;br&gt;&lt;/font&gt;" style="rounded=1;whiteSpace=wrap;html=1;fillColor=#262526;" parent="1" vertex="1">
          <mxGeometry x="-1940" y="-775" width="120" height="60" as="geometry" />
        </mxCell>
        <mxCell id="HnynXK6BrLuGzu9qscMR-21" value="" style="edgeStyle=segmentEdgeStyle;endArrow=classic;html=1;curved=0;rounded=0;endSize=8;startSize=8;" parent="1" edge="1">
          <mxGeometry width="50" height="50" relative="1" as="geometry">
            <mxPoint x="-2067" y="-732" as="sourcePoint" />
            <mxPoint x="-1940" y="-732" as="targetPoint" />
            <Array as="points">
              <mxPoint x="-2067" y="-732" />
            </Array>
          </mxGeometry>
        </mxCell>
        <mxCell id="HnynXK6BrLuGzu9qscMR-32" value="" style="group;dropTarget=0;pointerEvents=0;" parent="1" vertex="1">
          <mxGeometry x="-2340" y="-1030" width="640" height="45" as="geometry" />
        </mxCell>
        <mxCell id="HnynXK6BrLuGzu9qscMR-33" value="&lt;font style=&quot;font-size: 20px;&quot;&gt;Diagramme de cas d&#39;utilisation (Use Case Diagram) :&lt;/font&gt;" style="points=[[0.233,0.967,0]];html=1;overflow=block;blockSpacing=1;whiteSpace=wrap;fontSize=16;fontColor=default;align=center;spacingLeft=7;spacingRight=7;spacingTop=2;spacing=3;strokeOpacity=0;fillOpacity=0;rounded=1;absoluteArcSize=1;arcSize=12;fillColor=#ffffff;strokeWidth=1.5;lucidId=E0v4OU6HhNtv;" parent="HnynXK6BrLuGzu9qscMR-32" vertex="1">
          <mxGeometry width="640" height="31" as="geometry" />
        </mxCell>
        <UserObject label="Ilan Tervil&amp;nbsp; |  %date{mmmm d, yyyy}%" placeholders="1" id="HnynXK6BrLuGzu9qscMR-34">
          <mxCell style="html=1;overflow=block;blockSpacing=1;whiteSpace=wrap;fontSize=11.5;fontColor=#a9afb8;align=center;spacingLeft=7;spacingRight=7;spacingTop=2;spacing=3;strokeOpacity=0;fillOpacity=0;rounded=1;absoluteArcSize=1;arcSize=12;fillColor=#ffffff;strokeWidth=1.5;lucidId=E0v46zYpy2dv;" parent="HnynXK6BrLuGzu9qscMR-32" vertex="1">
            <mxGeometry y="31" width="640" height="14" as="geometry" />
          </mxCell>
        </UserObject>
        <mxCell id="HnynXK6BrLuGzu9qscMR-35" value="" style="html=1;jettySize=18;whiteSpace=wrap;fontSize=13;fontFamily=Helvetica;strokeColor=#a9afb8;strokeOpacity=100;strokeWidth=1.5;rounded=0;startArrow=none;endArrow=none;exitX=0.233;exitY=0.967;exitPerimeter=0;lucidId=E0v4RzTpeAeE;" parent="HnynXK6BrLuGzu9qscMR-32" source="HnynXK6BrLuGzu9qscMR-33" edge="1">
          <mxGeometry width="100" height="100" relative="1" as="geometry">
            <Array as="points" />
            <mxPoint x="494" y="30" as="targetPoint" />
          </mxGeometry>
        </mxCell>
        <mxCell id="HnynXK6BrLuGzu9qscMR-43" value="&lt;font color=&quot;#ffffff&quot;&gt;Système de réservation&lt;br&gt;&lt;/font&gt;" style="rounded=1;whiteSpace=wrap;html=1;fillColor=#262526;" parent="1" vertex="1">
          <mxGeometry x="-1654" y="-642.5" width="120" height="60" as="geometry" />
        </mxCell>
        <UserObject label="&lt;div style=&quot;display: flex; justify-content: flex-start; text-align: left; align-items: baseline; line-height: 1.25; margin-top: -2px; font-size: 20px;&quot;&gt;&lt;span style=&quot;color: rgb(0, 0, 0);&quot;&gt;&lt;font style=&quot;font-size: 20px;&quot;&gt;Diagramme de séquence (Sequence Diagram) :&lt;br&gt;&lt;/font&gt;&lt;/span&gt;&lt;/div&gt;&lt;div style=&quot;display: flex; justify-content: center; text-align: center; align-items: baseline; line-height: 1.25; margin-left: 7px; margin-right: 7px; margin-top: -2px; font-size: 20px;&quot;&gt;&lt;span style=&quot;color: rgb(169, 175, 184);&quot;&gt;&lt;font style=&quot;font-size: 20px;&quot;&gt;Ilan Tervil&amp;nbsp; |  %date{mmmm d, yyyy}%&lt;/font&gt;&lt;/span&gt;&lt;/div&gt;" placeholders="1" id="HnynXK6BrLuGzu9qscMR-51">
          <mxCell style="html=1;overflow=block;blockSpacing=1;whiteSpace=wrap;fontSize=13;align=left;spacing=3.8;verticalAlign=top;strokeColor=none;fillOpacity=0;fillColor=#ffffff;strokeWidth=0;lucidId=O.v4v.V5B6~r;" parent="1" vertex="1">
            <mxGeometry x="-1142.87" y="-1030" width="494" height="46" as="geometry" />
          </mxCell>
        </UserObject>
        <mxCell id="HnynXK6BrLuGzu9qscMR-52" value="" style="html=1;overflow=block;blockSpacing=1;whiteSpace=wrap;rounded=1;absoluteArcSize=1;arcSize=24;container=1;pointerEvents=0;collapsible=0;recursiveResize=0;fontSize=13;align=center;spacing=0;strokeColor=#5e5e5e;strokeOpacity=100;fillOpacity=100;fillColor=#D92332;strokeWidth=2.3;lucidId=O.v4sSC.tmU.;" parent="1" vertex="1">
          <mxGeometry x="-1015.87" y="-908" width="160" height="120" as="geometry" />
        </mxCell>
        <mxCell id="HnynXK6BrLuGzu9qscMR-53" value="Système de &lt;br&gt;réservation" style="html=1;overflow=block;blockSpacing=1;whiteSpace=wrap;fontSize=16.7;fontColor=#333333;align=center;spacing=3.8;strokeOpacity=0;fillOpacity=0;rounded=1;absoluteArcSize=1;arcSize=9;fillColor=#ffffff;strokeWidth=2.3;lucidId=O.v4Upmj7qb6;" parent="1" vertex="1">
          <mxGeometry x="-1025.87" y="-870" width="180" height="45" as="geometry" />
        </mxCell>
        <mxCell id="HnynXK6BrLuGzu9qscMR-57" value="" style="html=1;overflow=block;blockSpacing=1;whiteSpace=wrap;fontSize=13;spacing=0;strokeColor=#5e5e5e;strokeOpacity=100;rounded=1;absoluteArcSize=1;arcSize=9;rotation=-270;dashed=1;fixDash=1;strokeWidth=2.3;lucidId=O.v4MvfRuMcS;" parent="1" vertex="1">
          <mxGeometry x="-1169.84" y="-554.01" width="468.94" height="2" as="geometry" />
        </mxCell>
        <mxCell id="HnynXK6BrLuGzu9qscMR-61" value="" style="html=1;overflow=block;blockSpacing=1;whiteSpace=wrap;fontSize=13;spacing=0;strokeColor=#5E5E5E;strokeOpacity=100;fillOpacity=100;rounded=1;absoluteArcSize=1;arcSize=9;fillColor=#262526;strokeWidth=2.3;lucidId=O.v4kSHFRUKb;" parent="1" vertex="1">
          <mxGeometry x="-946" y="-735" width="19.62" height="375" as="geometry" />
        </mxCell>
        <mxCell id="HnynXK6BrLuGzu9qscMR-62" value="" style="html=1;overflow=block;blockSpacing=1;whiteSpace=wrap;fontSize=13;spacing=0;strokeColor=#5e5e5e;strokeOpacity=100;rounded=1;absoluteArcSize=1;arcSize=9;rotation=-270;dashed=1;fixDash=1;strokeWidth=2.3;lucidId=O.v4rNS-CwyW;" parent="1" vertex="1">
          <mxGeometry x="-1371.5" y="-545.37" width="456.26" height="2" as="geometry" />
        </mxCell>
        <mxCell id="HnynXK6BrLuGzu9qscMR-79" value="" style="html=1;jettySize=18;whiteSpace=wrap;fontSize=13;strokeColor=#5E5E5E;strokeWidth=1.5;rounded=1;arcSize=12;edgeStyle=orthogonalEdgeStyle;startArrow=block;startFill=1;endArrow=none;lucidId=wtw4ixZKij.u;exitX=0.031;exitY=0.063;exitDx=0;exitDy=0;exitPerimeter=0;" parent="1" edge="1" source="HnynXK6BrLuGzu9qscMR-61">
          <mxGeometry width="100" height="100" relative="1" as="geometry">
            <Array as="points" />
            <mxPoint x="-949.87" y="-714" as="sourcePoint" />
            <mxPoint x="-1139.87" y="-714" as="targetPoint" />
          </mxGeometry>
        </mxCell>
        <mxCell id="HnynXK6BrLuGzu9qscMR-80" value="Demande de réservation" style="text;html=1;resizable=0;labelBackgroundColor=default;align=center;verticalAlign=middle;fontStyle=1;fontColor=#333333;fontSize=13.3;" parent="HnynXK6BrLuGzu9qscMR-79" vertex="1">
          <mxGeometry relative="1" as="geometry">
            <mxPoint y="-2" as="offset" />
          </mxGeometry>
        </mxCell>
        <mxCell id="HnynXK6BrLuGzu9qscMR-81" value="" style="html=1;jettySize=18;whiteSpace=wrap;fontSize=13;strokeColor=#5E5E5E;dashed=1;fixDash=1;strokeWidth=1.5;rounded=1;arcSize=12;edgeStyle=orthogonalEdgeStyle;startArrow=none;endArrow=block;endFill=1;lucidId=wtw47-qaW_Ss;entryX=1.087;entryY=0.269;entryDx=0;entryDy=0;entryPerimeter=0;" parent="1" edge="1">
          <mxGeometry width="100" height="100" relative="1" as="geometry">
            <Array as="points" />
            <mxPoint x="-728.74" y="-645.34" as="sourcePoint" />
            <mxPoint x="-924.6730600000001" y="-644.885" as="targetPoint" />
          </mxGeometry>
        </mxCell>
        <mxCell id="HnynXK6BrLuGzu9qscMR-82" value="&lt;font style=&quot;font-size: 12px;&quot;&gt;Afficher liste des films &lt;/font&gt;" style="text;html=1;resizable=0;labelBackgroundColor=default;align=center;verticalAlign=middle;fontStyle=1;fontColor=#333333;fontSize=13.3;" parent="HnynXK6BrLuGzu9qscMR-81" vertex="1">
          <mxGeometry relative="1" as="geometry">
            <mxPoint y="-1" as="offset" />
          </mxGeometry>
        </mxCell>
        <mxCell id="HnynXK6BrLuGzu9qscMR-83" value="" style="html=1;jettySize=18;whiteSpace=wrap;fontSize=13;strokeColor=#5E5E5E;strokeWidth=1.5;rounded=1;arcSize=12;edgeStyle=orthogonalEdgeStyle;startArrow=block;startFill=1;endArrow=none;lucidId=wtw4JS.fzAdc;exitX=0.051;exitY=0.882;exitDx=0;exitDy=0;exitPerimeter=0;" parent="1" edge="1" source="HnynXK6BrLuGzu9qscMR-61">
          <mxGeometry width="100" height="100" relative="1" as="geometry">
            <Array as="points" />
            <mxPoint x="-951.87" y="-403.62" as="sourcePoint" />
            <mxPoint x="-1141.87" y="-403.62" as="targetPoint" />
          </mxGeometry>
        </mxCell>
        <mxCell id="HnynXK6BrLuGzu9qscMR-84" value="Paiement" style="text;html=1;resizable=0;labelBackgroundColor=default;align=center;verticalAlign=middle;fontStyle=1;fontColor=#333333;fontSize=13.3;" parent="HnynXK6BrLuGzu9qscMR-83" vertex="1">
          <mxGeometry relative="1" as="geometry">
            <mxPoint as="offset" />
          </mxGeometry>
        </mxCell>
        <mxCell id="HnynXK6BrLuGzu9qscMR-87" value="" style="html=1;jettySize=18;whiteSpace=wrap;fontSize=13;strokeColor=#5E5E5E;dashed=1;fixDash=1;strokeWidth=1.5;rounded=1;arcSize=12;edgeStyle=orthogonalEdgeStyle;startArrow=none;endArrow=block;endFill=1;lucidId=-tw4iL17KhE3;" parent="1" edge="1">
          <mxGeometry width="100" height="100" relative="1" as="geometry">
            <Array as="points" />
            <mxPoint x="-949" y="-366.78" as="sourcePoint" />
            <mxPoint x="-1140.87" y="-366.78" as="targetPoint" />
          </mxGeometry>
        </mxCell>
        <mxCell id="HnynXK6BrLuGzu9qscMR-167" value="&lt;b&gt;&lt;font style=&quot;font-size: 13px;&quot;&gt;Confirmation&lt;/font&gt;&lt;/b&gt;" style="edgeLabel;html=1;align=center;verticalAlign=middle;resizable=0;points=[];" parent="HnynXK6BrLuGzu9qscMR-87" vertex="1" connectable="0">
          <mxGeometry x="0.2508" y="-1" relative="1" as="geometry">
            <mxPoint x="30" as="offset" />
          </mxGeometry>
        </mxCell>
        <mxCell id="HnynXK6BrLuGzu9qscMR-109" value="Acteur : Client" style="shape=umlActor;verticalLabelPosition=bottom;verticalAlign=top;html=1;outlineConnect=0;" parent="1" vertex="1">
          <mxGeometry x="-1172.87" y="-910" width="59" height="118" as="geometry" />
        </mxCell>
        <UserObject label="&lt;div style=&quot;display: flex; justify-content: flex-start; text-align: left; align-items: baseline; line-height: 1.25; margin-top: -2px;&quot;&gt;&lt;span style=&quot;color: rgb(0, 0, 0);&quot;&gt;&lt;font style=&quot;font-size: 20px;&quot;&gt;Diagramme de classes (Class Diagram)&lt;/font&gt;&lt;br&gt;&lt;/span&gt;&lt;/div&gt;&lt;div style=&quot;display: flex; justify-content: center; text-align: center; align-items: baseline; font-size: 0; line-height: 1.25;margin-left: 7px;margin-right: 7px;margin-top: 2px;margin-top: -2px;&quot;&gt;&lt;span&gt;&lt;span style=&quot;font-size:11.5px;color:#a9afb8;&quot;&gt;Ilan Tervil&amp;nbsp; |  %date{mmmm d, yyyy}%&lt;/span&gt;&lt;/span&gt;&lt;/div&gt;" placeholders="1" id="HnynXK6BrLuGzu9qscMR-110">
          <mxCell style="html=1;overflow=block;blockSpacing=1;whiteSpace=wrap;fontSize=13;align=left;spacing=3.8;verticalAlign=top;strokeColor=none;fillOpacity=0;fillColor=#ffffff;strokeWidth=0;lucidId=5Hx4jj2AYFTZ;" parent="1" vertex="1">
            <mxGeometry x="-311" y="-1029.0000000000002" width="543" height="62" as="geometry" />
          </mxCell>
        </UserObject>
        <mxCell id="MbIMBQDH0H3NFTRxCK3x-52" style="edgeStyle=orthogonalEdgeStyle;rounded=0;orthogonalLoop=1;jettySize=auto;html=1;entryX=0.5;entryY=0;entryDx=0;entryDy=0;exitX=0.5;exitY=0.992;exitDx=0;exitDy=0;exitPerimeter=0;" edge="1" parent="1" source="HnynXK6BrLuGzu9qscMR-118" target="HnynXK6BrLuGzu9qscMR-129">
          <mxGeometry relative="1" as="geometry" />
        </mxCell>
        <mxCell id="MbIMBQDH0H3NFTRxCK3x-67" value="*" style="edgeLabel;html=1;align=center;verticalAlign=middle;resizable=0;points=[];" vertex="1" connectable="0" parent="MbIMBQDH0H3NFTRxCK3x-52">
          <mxGeometry x="-0.4353" y="-1" relative="1" as="geometry">
            <mxPoint x="1" as="offset" />
          </mxGeometry>
        </mxCell>
        <mxCell id="MbIMBQDH0H3NFTRxCK3x-68" value="&amp;lt;&amp;gt;" style="edgeLabel;html=1;align=center;verticalAlign=middle;resizable=0;points=[];" vertex="1" connectable="0" parent="MbIMBQDH0H3NFTRxCK3x-52">
          <mxGeometry x="0.5373" relative="1" as="geometry">
            <mxPoint as="offset" />
          </mxGeometry>
        </mxCell>
        <mxCell id="HnynXK6BrLuGzu9qscMR-117" value="Système de réservation" style="html=1;overflow=block;blockSpacing=1;swimlane;childLayout=stackLayout;horizontal=1;horizontalStack=0;resizeParent=1;resizeParentMax=0;resizeLast=0;collapsible=0;fontStyle=0;marginBottom=0;swimlaneFillColor=#D92332;startSize=25;whiteSpace=wrap;fontSize=16.7;fontColor=#ffffff;align=center;spacing=0;strokeColor=#ffffff;strokeOpacity=100;fillOpacity=100;rounded=1;absoluteArcSize=1;arcSize=9;fillColor=#D92332;strokeWidth=2.3;" parent="1" vertex="1">
          <mxGeometry x="10" y="-889" width="282" height="158" as="geometry" />
        </mxCell>
        <mxCell id="HnynXK6BrLuGzu9qscMR-118" value="+ CreerReservation()&amp;nbsp; &amp;nbsp; &amp;nbsp;&amp;nbsp;&lt;br&gt;+ DemanderFilms()&amp;nbsp; &amp;nbsp; &amp;nbsp; &amp;nbsp; &amp;nbsp;&lt;br&gt;+ AfficherFilms()&amp;nbsp; &amp;nbsp; &amp;nbsp; &amp;nbsp; &amp;nbsp;&lt;br&gt;&lt;font color=&quot;#dedede&quot;&gt;+ DemanderPlaces()&amp;nbsp; &amp;nbsp; &amp;nbsp; &amp;nbsp;&amp;nbsp;&lt;br&gt;&lt;/font&gt;+ AfficherPlaces()&amp;nbsp; &amp;nbsp; &amp;nbsp; &amp;nbsp;&amp;nbsp;&lt;br&gt;&lt;font color=&quot;#dedede&quot;&gt;+ CreerReservation()&amp;nbsp; &amp;nbsp; &amp;nbsp;&amp;nbsp;&lt;/font&gt;" style="part=1;html=1;resizeHeight=0;strokeColor=none;fillColor=none;align=left;verticalAlign=middle;spacingLeft=4;spacingRight=4;overflow=hidden;rotatable=0;points=[[0,0.5],[1,0.5]];portConstraint=eastwest;swimlaneFillColor=#06042e;strokeOpacity=100;fillOpacity=100;whiteSpace=wrap;fontSize=16.7;fontColor=#ffffff;" parent="HnynXK6BrLuGzu9qscMR-117" vertex="1">
          <mxGeometry y="25" width="282" height="125" as="geometry" />
        </mxCell>
        <mxCell id="HnynXK6BrLuGzu9qscMR-119" value="" style="line;strokeWidth=1;fillColor=none;align=left;verticalAlign=middle;spacingTop=-1;spacingLeft=3;spacingRight=3;rotatable=0;labelPosition=right;points=[];portConstraint=eastwest;strokeColor=#FFFFFF;" parent="HnynXK6BrLuGzu9qscMR-117" vertex="1">
          <mxGeometry y="150" width="282" height="8" as="geometry" />
        </mxCell>
        <mxCell id="HnynXK6BrLuGzu9qscMR-126" value="Client" style="html=1;overflow=block;blockSpacing=1;swimlane;childLayout=stackLayout;horizontal=1;horizontalStack=0;resizeParent=1;resizeParentMax=0;resizeLast=0;collapsible=0;fontStyle=0;marginBottom=0;swimlaneFillColor=#D9777F;startSize=25;whiteSpace=wrap;fontSize=16.7;fontColor=#ffffff;align=center;spacing=0;strokeColor=#ffffff;strokeOpacity=100;fillOpacity=100;rounded=1;absoluteArcSize=1;arcSize=9;fillColor=#D9777F;strokeWidth=2.3;" parent="1" vertex="1">
          <mxGeometry x="380" y="-990.0000000000001" width="375" height="118" as="geometry" />
        </mxCell>
        <mxCell id="HnynXK6BrLuGzu9qscMR-127" value="- id : INT AUTO INCREMENTE&lt;br&gt;- Nom : STRING&lt;br&gt;- Prenom : STRING" style="part=1;html=1;resizeHeight=0;strokeColor=none;fillColor=none;align=left;verticalAlign=middle;spacingLeft=4;spacingRight=4;overflow=hidden;rotatable=0;points=[[0,0.5],[1,0.5]];portConstraint=eastwest;swimlaneFillColor=#272733;strokeOpacity=100;fillOpacity=100;whiteSpace=wrap;fontSize=16.7;fontColor=#ffffff;" parent="HnynXK6BrLuGzu9qscMR-126" vertex="1">
          <mxGeometry y="25" width="375" height="85" as="geometry" />
        </mxCell>
        <mxCell id="HnynXK6BrLuGzu9qscMR-128" value="" style="line;strokeWidth=1;fillColor=none;align=left;verticalAlign=middle;spacingTop=-1;spacingLeft=3;spacingRight=3;rotatable=0;labelPosition=right;points=[];portConstraint=eastwest;fontColor=#FFFFFF;strokeColor=#FFFFFF;" parent="HnynXK6BrLuGzu9qscMR-126" vertex="1">
          <mxGeometry y="110" width="375" height="8" as="geometry" />
        </mxCell>
        <mxCell id="HnynXK6BrLuGzu9qscMR-129" value="Cinema" style="html=1;overflow=block;blockSpacing=1;swimlane;childLayout=stackLayout;horizontal=1;horizontalStack=0;resizeParent=1;resizeParentMax=0;resizeLast=0;collapsible=0;fontStyle=0;marginBottom=0;swimlaneFillColor=#D9777F;startSize=25;whiteSpace=wrap;fontSize=16.7;fontColor=#ffffff;align=center;spacing=0;strokeColor=#ffffff;strokeOpacity=100;fillOpacity=100;rounded=1;absoluteArcSize=1;arcSize=9;fillColor=#D9777F;strokeWidth=2.3;" parent="1" vertex="1">
          <mxGeometry x="11" y="-638" width="280" height="108" as="geometry" />
        </mxCell>
        <mxCell id="HnynXK6BrLuGzu9qscMR-130" value="- id : INT AUTO INCREMENTE&lt;br&gt;- Nom : STRING&lt;br&gt;- Adresse : STRING" style="part=1;html=1;resizeHeight=0;strokeColor=none;fillColor=none;align=left;verticalAlign=middle;spacingLeft=4;spacingRight=4;overflow=hidden;rotatable=0;points=[[0,0.5],[1,0.5]];portConstraint=eastwest;swimlaneFillColor=#272733;strokeOpacity=100;fillOpacity=100;whiteSpace=wrap;fontSize=16.7;fontColor=#ffffff;" parent="HnynXK6BrLuGzu9qscMR-129" vertex="1">
          <mxGeometry y="25" width="280" height="75" as="geometry" />
        </mxCell>
        <mxCell id="HnynXK6BrLuGzu9qscMR-131" value="" style="line;strokeWidth=1;fillColor=none;align=left;verticalAlign=middle;spacingTop=-1;spacingLeft=3;spacingRight=3;rotatable=0;labelPosition=right;points=[];portConstraint=eastwest;strokeColor=#FFFFFF;" parent="HnynXK6BrLuGzu9qscMR-129" vertex="1">
          <mxGeometry y="100" width="280" height="8" as="geometry" />
        </mxCell>
        <mxCell id="HnynXK6BrLuGzu9qscMR-135" value="Film" style="html=1;overflow=block;blockSpacing=1;swimlane;childLayout=stackLayout;horizontal=1;horizontalStack=0;resizeParent=1;resizeParentMax=0;resizeLast=0;collapsible=0;fontStyle=0;marginBottom=0;swimlaneFillColor=#D9777F;startSize=25;whiteSpace=wrap;fontSize=16.7;fontColor=#ffffff;align=center;spacing=0;strokeColor=#ffffff;strokeOpacity=100;fillOpacity=100;rounded=1;absoluteArcSize=1;arcSize=9;fillColor=#D9777F;strokeWidth=2.3;" parent="1" vertex="1">
          <mxGeometry x="340" y="-620" width="389" height="108" as="geometry" />
        </mxCell>
        <mxCell id="HnynXK6BrLuGzu9qscMR-136" value="-&amp;nbsp;id : INT AUTO INCREMENTE&lt;br&gt;-&amp;nbsp;Titre : STRING&lt;br&gt;- Duree : INT" style="part=1;html=1;resizeHeight=0;strokeColor=none;fillColor=none;align=left;verticalAlign=middle;spacingLeft=4;spacingRight=4;overflow=hidden;rotatable=0;points=[[0,0.5],[1,0.5]];portConstraint=eastwest;swimlaneFillColor=#272733;strokeOpacity=100;fillOpacity=100;whiteSpace=wrap;fontSize=16.7;fontColor=#ffffff;" parent="HnynXK6BrLuGzu9qscMR-135" vertex="1">
          <mxGeometry y="25" width="389" height="75" as="geometry" />
        </mxCell>
        <mxCell id="HnynXK6BrLuGzu9qscMR-137" value="" style="line;strokeWidth=1;fillColor=none;align=left;verticalAlign=middle;spacingTop=-1;spacingLeft=3;spacingRight=3;rotatable=0;labelPosition=right;points=[];portConstraint=eastwest;strokeColor=#FFFFFF;" parent="HnynXK6BrLuGzu9qscMR-135" vertex="1">
          <mxGeometry y="100" width="389" height="8" as="geometry" />
        </mxCell>
        <mxCell id="HnynXK6BrLuGzu9qscMR-162" value="" style="edgeStyle=segmentEdgeStyle;endArrow=classic;html=1;curved=0;rounded=0;endSize=8;startSize=8;entryX=-0.005;entryY=0.792;entryDx=0;entryDy=0;entryPerimeter=0;exitX=1.002;exitY=0.725;exitDx=0;exitDy=0;exitPerimeter=0;" parent="1" edge="1" source="HnynXK6BrLuGzu9qscMR-4">
          <mxGeometry width="50" height="50" relative="1" as="geometry">
            <mxPoint x="-2096.61" y="-664.7500000000002" as="sourcePoint" />
            <mxPoint x="-1940.4" y="-664.52" as="targetPoint" />
            <Array as="points">
              <mxPoint x="-2065" y="-665" />
            </Array>
          </mxGeometry>
        </mxCell>
        <mxCell id="HnynXK6BrLuGzu9qscMR-163" value="&lt;font color=&quot;#ffffff&quot;&gt;Ajouter une séance de son propre &lt;br&gt;cinéma&lt;br&gt;&lt;/font&gt;" style="rounded=1;whiteSpace=wrap;html=1;fillColor=#262526;" parent="1" vertex="1">
          <mxGeometry x="-1940" y="-695" width="120" height="60" as="geometry" />
        </mxCell>
        <mxCell id="MbIMBQDH0H3NFTRxCK3x-1" value="" style="whiteSpace=wrap;html=1;aspect=fixed;fillColor=#D9777F;strokeColor=#000000;" vertex="1" parent="1">
          <mxGeometry x="-2177" y="-485" width="110" height="110" as="geometry" />
        </mxCell>
        <mxCell id="MbIMBQDH0H3NFTRxCK3x-2" value="Acteur : Administrateur" style="shape=umlActor;verticalLabelPosition=bottom;verticalAlign=top;html=1;outlineConnect=0;" vertex="1" parent="1">
          <mxGeometry x="-2165.51" y="-549" width="87" height="174" as="geometry" />
        </mxCell>
        <mxCell id="MbIMBQDH0H3NFTRxCK3x-6" style="edgeStyle=orthogonalEdgeStyle;rounded=0;orthogonalLoop=1;jettySize=auto;html=1;entryX=0.475;entryY=0.988;entryDx=0;entryDy=0;entryPerimeter=0;" edge="1" parent="1" source="MbIMBQDH0H3NFTRxCK3x-4" target="HnynXK6BrLuGzu9qscMR-43">
          <mxGeometry relative="1" as="geometry" />
        </mxCell>
        <mxCell id="MbIMBQDH0H3NFTRxCK3x-4" value="&lt;font style=&quot;&quot; color=&quot;#ffffff&quot;&gt;Gérer les séances&lt;/font&gt;&lt;font color=&quot;#ffffff&quot;&gt;&lt;br&gt;&lt;/font&gt;" style="rounded=1;whiteSpace=wrap;html=1;fillColor=#262526;" vertex="1" parent="1">
          <mxGeometry x="-1940" y="-492" width="120" height="60" as="geometry" />
        </mxCell>
        <mxCell id="MbIMBQDH0H3NFTRxCK3x-5" value="" style="edgeStyle=segmentEdgeStyle;endArrow=classic;html=1;curved=0;rounded=0;endSize=8;startSize=8;entryX=-0.005;entryY=0.792;entryDx=0;entryDy=0;entryPerimeter=0;exitX=1.002;exitY=0.725;exitDx=0;exitDy=0;exitPerimeter=0;" edge="1" parent="1">
          <mxGeometry width="50" height="50" relative="1" as="geometry">
            <mxPoint x="-2066.6" y="-462.24" as="sourcePoint" />
            <mxPoint x="-1940" y="-461.76" as="targetPoint" />
            <Array as="points">
              <mxPoint x="-2064.6" y="-462.24" />
            </Array>
          </mxGeometry>
        </mxCell>
        <mxCell id="MbIMBQDH0H3NFTRxCK3x-7" value="&lt;font style=&quot;font-size: 17px;&quot;&gt;Système de réservation&lt;/font&gt;" style="html=1;overflow=block;blockSpacing=1;whiteSpace=wrap;rounded=1;absoluteArcSize=1;arcSize=24;container=1;pointerEvents=0;collapsible=0;recursiveResize=0;fontSize=13;align=center;spacing=0;strokeColor=#5e5e5e;strokeOpacity=100;fillOpacity=100;fillColor=#D92332;strokeWidth=2.3;lucidId=O.v4sSC.tmU.;" vertex="1" parent="1">
          <mxGeometry x="-793.24" y="-907.5" width="160" height="120" as="geometry" />
        </mxCell>
        <mxCell id="MbIMBQDH0H3NFTRxCK3x-9" value="" style="html=1;overflow=block;blockSpacing=1;whiteSpace=wrap;fontSize=13;spacing=0;strokeColor=#5e5e5e;strokeOpacity=100;rounded=1;absoluteArcSize=1;arcSize=9;rotation=-270;dashed=1;fixDash=1;strokeWidth=2.3;lucidId=O.v4MvfRuMcS;" vertex="1" parent="1">
          <mxGeometry x="-945.05" y="-551.68" width="463.61" height="2" as="geometry" />
        </mxCell>
        <mxCell id="MbIMBQDH0H3NFTRxCK3x-8" value="" style="html=1;overflow=block;blockSpacing=1;whiteSpace=wrap;fontSize=13;spacing=0;strokeColor=#5E5E5E;strokeOpacity=100;fillOpacity=100;rounded=1;absoluteArcSize=1;arcSize=9;fillColor=#262526;strokeWidth=2.3;lucidId=O.v4kSHFRUKb;" vertex="1" parent="1">
          <mxGeometry x="-725" y="-730" width="21.26" height="370" as="geometry" />
        </mxCell>
        <mxCell id="MbIMBQDH0H3NFTRxCK3x-12" value="" style="html=1;jettySize=18;whiteSpace=wrap;fontSize=13;strokeColor=#5E5E5E;strokeWidth=1.5;rounded=1;arcSize=12;edgeStyle=orthogonalEdgeStyle;startArrow=block;startFill=1;endArrow=none;lucidId=wtw4ixZKij.u;exitX=-0.031;exitY=0.123;exitDx=0;exitDy=0;exitPerimeter=0;" edge="1" parent="1" source="MbIMBQDH0H3NFTRxCK3x-8">
          <mxGeometry width="100" height="100" relative="1" as="geometry">
            <Array as="points" />
            <mxPoint x="-730" y="-685" as="sourcePoint" />
            <mxPoint x="-924.8699999999999" y="-685.34" as="targetPoint" />
          </mxGeometry>
        </mxCell>
        <mxCell id="MbIMBQDH0H3NFTRxCK3x-13" value="&lt;font style=&quot;font-size: 12px;&quot;&gt;Création de la réservation&lt;/font&gt;" style="text;html=1;resizable=0;labelBackgroundColor=default;align=center;verticalAlign=middle;fontStyle=1;fontColor=#333333;fontSize=13.3;" vertex="1" parent="MbIMBQDH0H3NFTRxCK3x-12">
          <mxGeometry relative="1" as="geometry">
            <mxPoint x="-3" y="-1" as="offset" />
          </mxGeometry>
        </mxCell>
        <mxCell id="MbIMBQDH0H3NFTRxCK3x-19" value="" style="html=1;jettySize=18;whiteSpace=wrap;fontSize=13;strokeColor=#5E5E5E;strokeWidth=1.5;rounded=1;arcSize=12;edgeStyle=orthogonalEdgeStyle;startArrow=block;startFill=1;endArrow=none;lucidId=wtw4ixZKij.u;exitX=-0.019;exitY=0.393;exitDx=0;exitDy=0;exitPerimeter=0;" edge="1" parent="1">
          <mxGeometry width="100" height="100" relative="1" as="geometry">
            <Array as="points" />
            <mxPoint x="-725.4039400000001" y="-600.3100000000001" as="sourcePoint" />
            <mxPoint x="-924.9999999999999" y="-599.9200000000001" as="targetPoint" />
          </mxGeometry>
        </mxCell>
        <mxCell id="MbIMBQDH0H3NFTRxCK3x-20" value="&lt;font style=&quot;font-size: 12px;&quot;&gt;Afficher liste des films &lt;/font&gt;" style="text;html=1;resizable=0;labelBackgroundColor=default;align=center;verticalAlign=middle;fontStyle=1;fontColor=#333333;fontSize=13.3;" vertex="1" parent="MbIMBQDH0H3NFTRxCK3x-19">
          <mxGeometry relative="1" as="geometry">
            <mxPoint y="-2" as="offset" />
          </mxGeometry>
        </mxCell>
        <mxCell id="MbIMBQDH0H3NFTRxCK3x-24" value="" style="html=1;jettySize=18;whiteSpace=wrap;fontSize=13;strokeColor=#5E5E5E;strokeWidth=1.5;rounded=1;arcSize=12;edgeStyle=orthogonalEdgeStyle;startArrow=block;startFill=1;endArrow=none;lucidId=wtw4ixZKij.u;exitX=-0.019;exitY=0.393;exitDx=0;exitDy=0;exitPerimeter=0;" edge="1" parent="1">
          <mxGeometry width="100" height="100" relative="1" as="geometry">
            <Array as="points" />
            <mxPoint x="-725.0139400000002" y="-557.48" as="sourcePoint" />
            <mxPoint x="-924.6099999999999" y="-557.09" as="targetPoint" />
          </mxGeometry>
        </mxCell>
        <mxCell id="MbIMBQDH0H3NFTRxCK3x-25" value="&lt;font style=&quot;font-size: 12px;&quot;&gt;Sélectionner film et horaire&lt;/font&gt;" style="text;html=1;resizable=0;labelBackgroundColor=default;align=center;verticalAlign=middle;fontStyle=1;fontColor=#333333;fontSize=13.3;" vertex="1" parent="MbIMBQDH0H3NFTRxCK3x-24">
          <mxGeometry relative="1" as="geometry">
            <mxPoint y="-2" as="offset" />
          </mxGeometry>
        </mxCell>
        <mxCell id="MbIMBQDH0H3NFTRxCK3x-26" value="" style="html=1;jettySize=18;whiteSpace=wrap;fontSize=13;strokeColor=#5E5E5E;dashed=1;fixDash=1;strokeWidth=1.5;rounded=1;arcSize=12;edgeStyle=orthogonalEdgeStyle;startArrow=none;endArrow=block;endFill=1;lucidId=wtw47-qaW_Ss;entryX=0.989;entryY=0.579;entryDx=0;entryDy=0;entryPerimeter=0;" edge="1" parent="1" target="HnynXK6BrLuGzu9qscMR-61">
          <mxGeometry width="100" height="100" relative="1" as="geometry">
            <Array as="points" />
            <mxPoint x="-727.4499999999999" y="-518" as="sourcePoint" />
            <mxPoint x="-923.38306" y="-517.545" as="targetPoint" />
          </mxGeometry>
        </mxCell>
        <mxCell id="MbIMBQDH0H3NFTRxCK3x-27" value="&lt;font style=&quot;font-size: 12px;&quot;&gt;Demander places disponibles&lt;/font&gt;" style="text;html=1;resizable=0;labelBackgroundColor=default;align=center;verticalAlign=middle;fontStyle=1;fontColor=#333333;fontSize=13.3;" vertex="1" parent="MbIMBQDH0H3NFTRxCK3x-26">
          <mxGeometry relative="1" as="geometry">
            <mxPoint y="-2" as="offset" />
          </mxGeometry>
        </mxCell>
        <mxCell id="MbIMBQDH0H3NFTRxCK3x-28" value="" style="html=1;jettySize=18;whiteSpace=wrap;fontSize=13;strokeColor=#5E5E5E;strokeWidth=1.5;rounded=1;arcSize=12;edgeStyle=orthogonalEdgeStyle;startArrow=block;startFill=1;endArrow=none;lucidId=wtw4ixZKij.u;exitX=-0.019;exitY=0.393;exitDx=0;exitDy=0;exitPerimeter=0;" edge="1" parent="1">
          <mxGeometry width="100" height="100" relative="1" as="geometry">
            <Array as="points" />
            <mxPoint x="-725.0039400000002" y="-480" as="sourcePoint" />
            <mxPoint x="-924.5999999999999" y="-479.61" as="targetPoint" />
          </mxGeometry>
        </mxCell>
        <mxCell id="MbIMBQDH0H3NFTRxCK3x-29" value="&lt;font style=&quot;font-size: 12px;&quot;&gt;Afficher places disponibles&lt;/font&gt;" style="text;html=1;resizable=0;labelBackgroundColor=default;align=center;verticalAlign=middle;fontStyle=1;fontColor=#333333;fontSize=13.3;" vertex="1" parent="MbIMBQDH0H3NFTRxCK3x-28">
          <mxGeometry relative="1" as="geometry">
            <mxPoint x="-2" y="-1" as="offset" />
          </mxGeometry>
        </mxCell>
        <mxCell id="MbIMBQDH0H3NFTRxCK3x-30" value="" style="html=1;jettySize=18;whiteSpace=wrap;fontSize=13;strokeColor=#5E5E5E;strokeWidth=1.5;rounded=1;arcSize=12;edgeStyle=orthogonalEdgeStyle;startArrow=block;startFill=1;endArrow=none;lucidId=wtw4ixZKij.u;exitX=0.019;exitY=0.783;exitDx=0;exitDy=0;exitPerimeter=0;" edge="1" parent="1" source="MbIMBQDH0H3NFTRxCK3x-8">
          <mxGeometry width="100" height="100" relative="1" as="geometry">
            <Array as="points" />
            <mxPoint x="-726.7839400000001" y="-440" as="sourcePoint" />
            <mxPoint x="-926.3799999999999" y="-439.61" as="targetPoint" />
          </mxGeometry>
        </mxCell>
        <mxCell id="MbIMBQDH0H3NFTRxCK3x-31" value="&lt;font style=&quot;font-size: 12px;&quot;&gt;Sélectionner places et tarif&lt;/font&gt;" style="text;html=1;resizable=0;labelBackgroundColor=default;align=center;verticalAlign=middle;fontStyle=1;fontColor=#333333;fontSize=13.3;" vertex="1" parent="MbIMBQDH0H3NFTRxCK3x-30">
          <mxGeometry relative="1" as="geometry">
            <mxPoint x="-2" y="-1" as="offset" />
          </mxGeometry>
        </mxCell>
        <mxCell id="MbIMBQDH0H3NFTRxCK3x-32" value="" style="html=1;jettySize=18;whiteSpace=wrap;fontSize=13;strokeColor=#5E5E5E;strokeWidth=1.5;rounded=1;arcSize=12;edgeStyle=orthogonalEdgeStyle;startArrow=block;startFill=1;endArrow=none;lucidId=wtw4ixZKij.u;exitX=-0.019;exitY=0.393;exitDx=0;exitDy=0;exitPerimeter=0;" edge="1" parent="1">
          <mxGeometry width="100" height="100" relative="1" as="geometry">
            <Array as="points" />
            <mxPoint x="-725.0039400000002" y="-407.46" as="sourcePoint" />
            <mxPoint x="-924.5999999999999" y="-407.07" as="targetPoint" />
          </mxGeometry>
        </mxCell>
        <mxCell id="MbIMBQDH0H3NFTRxCK3x-33" value="&lt;font style=&quot;font-size: 12px;&quot;&gt;Créer réservation&lt;/font&gt;" style="text;html=1;resizable=0;labelBackgroundColor=default;align=center;verticalAlign=middle;fontStyle=1;fontColor=#333333;fontSize=13.3;" vertex="1" parent="MbIMBQDH0H3NFTRxCK3x-32">
          <mxGeometry relative="1" as="geometry">
            <mxPoint x="-2" y="-2" as="offset" />
          </mxGeometry>
        </mxCell>
        <mxCell id="MbIMBQDH0H3NFTRxCK3x-36" value="Salle" style="html=1;overflow=block;blockSpacing=1;swimlane;childLayout=stackLayout;horizontal=1;horizontalStack=0;resizeParent=1;resizeParentMax=0;resizeLast=0;collapsible=0;fontStyle=0;marginBottom=0;swimlaneFillColor=#D9777F;startSize=25;whiteSpace=wrap;fontSize=16.7;fontColor=#ffffff;align=center;spacing=0;strokeColor=#ffffff;strokeOpacity=100;fillOpacity=100;rounded=1;absoluteArcSize=1;arcSize=9;fillColor=#D9777F;strokeWidth=2.3;" vertex="1" parent="1">
          <mxGeometry x="-380" y="-653" width="280" height="118" as="geometry" />
        </mxCell>
        <mxCell id="MbIMBQDH0H3NFTRxCK3x-37" value="- id : INT AUTO INCREMENTE&lt;br&gt;- CinemaID : INT&lt;br&gt;- Nom&amp;nbsp;: STRING&lt;br&gt;- Capacite : INT" style="part=1;html=1;resizeHeight=0;strokeColor=none;fillColor=none;align=left;verticalAlign=middle;spacingLeft=4;spacingRight=4;overflow=hidden;rotatable=0;points=[[0,0.5],[1,0.5]];portConstraint=eastwest;swimlaneFillColor=#272733;strokeOpacity=100;fillOpacity=100;whiteSpace=wrap;fontSize=16.7;fontColor=#ffffff;" vertex="1" parent="MbIMBQDH0H3NFTRxCK3x-36">
          <mxGeometry y="25" width="280" height="85" as="geometry" />
        </mxCell>
        <mxCell id="MbIMBQDH0H3NFTRxCK3x-38" value="" style="line;strokeWidth=1;fillColor=none;align=left;verticalAlign=middle;spacingTop=-1;spacingLeft=3;spacingRight=3;rotatable=0;labelPosition=right;points=[];portConstraint=eastwest;strokeColor=#FFFFFF;" vertex="1" parent="MbIMBQDH0H3NFTRxCK3x-36">
          <mxGeometry y="110" width="280" height="8" as="geometry" />
        </mxCell>
        <mxCell id="MbIMBQDH0H3NFTRxCK3x-39" value="&amp;nbsp;Seance" style="html=1;overflow=block;blockSpacing=1;swimlane;childLayout=stackLayout;horizontal=1;horizontalStack=0;resizeParent=1;resizeParentMax=0;resizeLast=0;collapsible=0;fontStyle=0;marginBottom=0;swimlaneFillColor=#D9777F;startSize=25;whiteSpace=wrap;fontSize=16.7;fontColor=#ffffff;align=center;spacing=0;strokeColor=#ffffff;strokeOpacity=100;fillOpacity=100;rounded=1;absoluteArcSize=1;arcSize=9;fillColor=#D9777F;strokeWidth=2.3;" vertex="1" parent="1">
          <mxGeometry x="-200" y="-493" width="280" height="118" as="geometry" />
        </mxCell>
        <mxCell id="MbIMBQDH0H3NFTRxCK3x-40" value="- id : INT AUTO INCREMENTE&lt;br&gt;- FilmID : INT&lt;br&gt;- SalleID : INT&lt;br&gt;- DateHeure : DATE" style="part=1;html=1;resizeHeight=0;strokeColor=none;fillColor=none;align=left;verticalAlign=middle;spacingLeft=4;spacingRight=4;overflow=hidden;rotatable=0;points=[[0,0.5],[1,0.5]];portConstraint=eastwest;swimlaneFillColor=#272733;strokeOpacity=100;fillOpacity=100;whiteSpace=wrap;fontSize=16.7;fontColor=#ffffff;" vertex="1" parent="MbIMBQDH0H3NFTRxCK3x-39">
          <mxGeometry y="25" width="280" height="85" as="geometry" />
        </mxCell>
        <mxCell id="MbIMBQDH0H3NFTRxCK3x-41" value="" style="line;strokeWidth=1;fillColor=none;align=left;verticalAlign=middle;spacingTop=-1;spacingLeft=3;spacingRight=3;rotatable=0;labelPosition=right;points=[];portConstraint=eastwest;strokeColor=#FFFFFF;" vertex="1" parent="MbIMBQDH0H3NFTRxCK3x-39">
          <mxGeometry y="110" width="280" height="8" as="geometry" />
        </mxCell>
        <mxCell id="MbIMBQDH0H3NFTRxCK3x-42" value="Tarif" style="html=1;overflow=block;blockSpacing=1;swimlane;childLayout=stackLayout;horizontal=1;horizontalStack=0;resizeParent=1;resizeParentMax=0;resizeLast=0;collapsible=0;fontStyle=0;marginBottom=0;swimlaneFillColor=#D9777F;startSize=25;whiteSpace=wrap;fontSize=16.7;fontColor=#ffffff;align=center;spacing=0;strokeColor=#ffffff;strokeOpacity=100;fillOpacity=100;rounded=1;absoluteArcSize=1;arcSize=9;fillColor=#D9777F;strokeWidth=2.3;" vertex="1" parent="1">
          <mxGeometry x="160" y="-485" width="280" height="118" as="geometry" />
        </mxCell>
        <mxCell id="MbIMBQDH0H3NFTRxCK3x-43" value="- id : INT AUTO INCREMENTE&lt;br&gt;- Type : STRING&lt;br&gt;- Montant : DECIMAL" style="part=1;html=1;resizeHeight=0;strokeColor=none;fillColor=none;align=left;verticalAlign=middle;spacingLeft=4;spacingRight=4;overflow=hidden;rotatable=0;points=[[0,0.5],[1,0.5]];portConstraint=eastwest;swimlaneFillColor=#272733;strokeOpacity=100;fillOpacity=100;whiteSpace=wrap;fontSize=16.7;fontColor=#ffffff;" vertex="1" parent="MbIMBQDH0H3NFTRxCK3x-42">
          <mxGeometry y="25" width="280" height="85" as="geometry" />
        </mxCell>
        <mxCell id="MbIMBQDH0H3NFTRxCK3x-44" value="" style="line;strokeWidth=1;fillColor=none;align=left;verticalAlign=middle;spacingTop=-1;spacingLeft=3;spacingRight=3;rotatable=0;labelPosition=right;points=[];portConstraint=eastwest;strokeColor=#FFFFFF;" vertex="1" parent="MbIMBQDH0H3NFTRxCK3x-42">
          <mxGeometry y="110" width="280" height="8" as="geometry" />
        </mxCell>
        <mxCell id="MbIMBQDH0H3NFTRxCK3x-45" value="Reservation" style="html=1;overflow=block;blockSpacing=1;swimlane;childLayout=stackLayout;horizontal=1;horizontalStack=0;resizeParent=1;resizeParentMax=0;resizeLast=0;collapsible=0;fontStyle=0;marginBottom=0;swimlaneFillColor=#D9777F;startSize=25;whiteSpace=wrap;fontSize=16.7;fontColor=#ffffff;align=center;spacing=0;strokeColor=#ffffff;strokeOpacity=100;fillOpacity=100;rounded=1;absoluteArcSize=1;arcSize=9;fillColor=#D9777F;strokeWidth=2.3;" vertex="1" parent="1">
          <mxGeometry x="-490" y="-340.0000000000001" width="375" height="158" as="geometry" />
        </mxCell>
        <mxCell id="MbIMBQDH0H3NFTRxCK3x-46" value="- id : INT AUTO INCREMENTE&lt;br&gt;- ClientID : INT&lt;br&gt;- SeanceID : INT&lt;br&gt;- NombrePlaces : INT&lt;br&gt;- TarifID : INT" style="part=1;html=1;resizeHeight=0;strokeColor=none;fillColor=none;align=left;verticalAlign=middle;spacingLeft=4;spacingRight=4;overflow=hidden;rotatable=0;points=[[0,0.5],[1,0.5]];portConstraint=eastwest;swimlaneFillColor=#272733;strokeOpacity=100;fillOpacity=100;whiteSpace=wrap;fontSize=16.7;fontColor=#ffffff;" vertex="1" parent="MbIMBQDH0H3NFTRxCK3x-45">
          <mxGeometry y="25" width="375" height="125" as="geometry" />
        </mxCell>
        <mxCell id="MbIMBQDH0H3NFTRxCK3x-47" value="" style="line;strokeWidth=1;fillColor=none;align=left;verticalAlign=middle;spacingTop=-1;spacingLeft=3;spacingRight=3;rotatable=0;labelPosition=right;points=[];portConstraint=eastwest;fontColor=#FFFFFF;strokeColor=#FFFFFF;" vertex="1" parent="MbIMBQDH0H3NFTRxCK3x-45">
          <mxGeometry y="150" width="375" height="8" as="geometry" />
        </mxCell>
        <mxCell id="MbIMBQDH0H3NFTRxCK3x-48" value="Utilisateur" style="html=1;overflow=block;blockSpacing=1;swimlane;childLayout=stackLayout;horizontal=1;horizontalStack=0;resizeParent=1;resizeParentMax=0;resizeLast=0;collapsible=0;fontStyle=0;marginBottom=0;swimlaneFillColor=#D9777F;startSize=25;whiteSpace=wrap;fontSize=16.7;fontColor=#ffffff;align=center;spacing=0;strokeColor=#ffffff;strokeOpacity=100;fillOpacity=100;rounded=1;absoluteArcSize=1;arcSize=9;fillColor=#D9777F;strokeWidth=2.3;" vertex="1" parent="1">
          <mxGeometry x="440" y="-340.0000000000001" width="375" height="158" as="geometry" />
        </mxCell>
        <mxCell id="MbIMBQDH0H3NFTRxCK3x-49" value="- id : INT AUTO INCREMENTE&lt;br&gt;- NomUtilisateur :&amp;nbsp; STRING&lt;br&gt;- MotDePasse : STRING&lt;br&gt;- Role : STRING&lt;br&gt;- CinemaID : INT" style="part=1;html=1;resizeHeight=0;strokeColor=none;fillColor=none;align=left;verticalAlign=middle;spacingLeft=4;spacingRight=4;overflow=hidden;rotatable=0;points=[[0,0.5],[1,0.5]];portConstraint=eastwest;swimlaneFillColor=#272733;strokeOpacity=100;fillOpacity=100;whiteSpace=wrap;fontSize=16.7;fontColor=#ffffff;" vertex="1" parent="MbIMBQDH0H3NFTRxCK3x-48">
          <mxGeometry y="25" width="375" height="125" as="geometry" />
        </mxCell>
        <mxCell id="MbIMBQDH0H3NFTRxCK3x-50" value="" style="line;strokeWidth=1;fillColor=none;align=left;verticalAlign=middle;spacingTop=-1;spacingLeft=3;spacingRight=3;rotatable=0;labelPosition=right;points=[];portConstraint=eastwest;fontColor=#FFFFFF;strokeColor=#FFFFFF;" vertex="1" parent="MbIMBQDH0H3NFTRxCK3x-48">
          <mxGeometry y="150" width="375" height="8" as="geometry" />
        </mxCell>
        <mxCell id="MbIMBQDH0H3NFTRxCK3x-51" style="edgeStyle=orthogonalEdgeStyle;rounded=0;orthogonalLoop=1;jettySize=auto;html=1;entryX=0.5;entryY=0;entryDx=0;entryDy=0;" edge="1" parent="1" source="HnynXK6BrLuGzu9qscMR-118" target="HnynXK6BrLuGzu9qscMR-135">
          <mxGeometry relative="1" as="geometry" />
        </mxCell>
        <mxCell id="MbIMBQDH0H3NFTRxCK3x-59" value="*" style="edgeLabel;html=1;align=center;verticalAlign=middle;resizable=0;points=[];" vertex="1" connectable="0" parent="MbIMBQDH0H3NFTRxCK3x-51">
          <mxGeometry x="0.283" y="2" relative="1" as="geometry">
            <mxPoint x="-3" y="1" as="offset" />
          </mxGeometry>
        </mxCell>
        <mxCell id="MbIMBQDH0H3NFTRxCK3x-61" value="&amp;lt;&amp;gt;" style="edgeLabel;html=1;align=center;verticalAlign=middle;resizable=0;points=[];" vertex="1" connectable="0" parent="MbIMBQDH0H3NFTRxCK3x-51">
          <mxGeometry x="0.8528" relative="1" as="geometry">
            <mxPoint as="offset" />
          </mxGeometry>
        </mxCell>
        <mxCell id="MbIMBQDH0H3NFTRxCK3x-53" style="edgeStyle=orthogonalEdgeStyle;rounded=0;orthogonalLoop=1;jettySize=auto;html=1;entryX=0.75;entryY=0;entryDx=0;entryDy=0;" edge="1" parent="1" source="HnynXK6BrLuGzu9qscMR-118" target="MbIMBQDH0H3NFTRxCK3x-36">
          <mxGeometry relative="1" as="geometry" />
        </mxCell>
        <mxCell id="MbIMBQDH0H3NFTRxCK3x-72" value="*" style="edgeLabel;html=1;align=center;verticalAlign=middle;resizable=0;points=[];" vertex="1" connectable="0" parent="MbIMBQDH0H3NFTRxCK3x-53">
          <mxGeometry x="0.2194" relative="1" as="geometry">
            <mxPoint as="offset" />
          </mxGeometry>
        </mxCell>
        <mxCell id="MbIMBQDH0H3NFTRxCK3x-73" value="&amp;lt;&amp;gt;" style="edgeLabel;html=1;align=center;verticalAlign=middle;resizable=0;points=[];" vertex="1" connectable="0" parent="MbIMBQDH0H3NFTRxCK3x-53">
          <mxGeometry x="0.8259" y="1" relative="1" as="geometry">
            <mxPoint x="-1" as="offset" />
          </mxGeometry>
        </mxCell>
        <mxCell id="MbIMBQDH0H3NFTRxCK3x-54" style="edgeStyle=orthogonalEdgeStyle;rounded=0;orthogonalLoop=1;jettySize=auto;html=1;entryX=0.467;entryY=0.022;entryDx=0;entryDy=0;entryPerimeter=0;" edge="1" parent="1" source="HnynXK6BrLuGzu9qscMR-118" target="MbIMBQDH0H3NFTRxCK3x-39">
          <mxGeometry relative="1" as="geometry">
            <Array as="points">
              <mxPoint x="-69" y="-780" />
            </Array>
          </mxGeometry>
        </mxCell>
        <mxCell id="MbIMBQDH0H3NFTRxCK3x-69" value="&amp;lt;&amp;gt;" style="edgeLabel;html=1;align=center;verticalAlign=middle;resizable=0;points=[];" vertex="1" connectable="0" parent="MbIMBQDH0H3NFTRxCK3x-54">
          <mxGeometry x="0.846" y="1" relative="1" as="geometry">
            <mxPoint x="-1" as="offset" />
          </mxGeometry>
        </mxCell>
        <mxCell id="MbIMBQDH0H3NFTRxCK3x-70" value="*" style="edgeLabel;html=1;align=center;verticalAlign=middle;resizable=0;points=[];" vertex="1" connectable="0" parent="MbIMBQDH0H3NFTRxCK3x-54">
          <mxGeometry x="-0.3991" y="-1" relative="1" as="geometry">
            <mxPoint x="1" as="offset" />
          </mxGeometry>
        </mxCell>
        <mxCell id="MbIMBQDH0H3NFTRxCK3x-56" style="edgeStyle=orthogonalEdgeStyle;rounded=0;orthogonalLoop=1;jettySize=auto;html=1;entryX=0.5;entryY=0;entryDx=0;entryDy=0;" edge="1" parent="1" source="HnynXK6BrLuGzu9qscMR-118" target="MbIMBQDH0H3NFTRxCK3x-42">
          <mxGeometry relative="1" as="geometry">
            <mxPoint x="300" y="-490" as="targetPoint" />
            <Array as="points">
              <mxPoint x="300" y="-780" />
            </Array>
          </mxGeometry>
        </mxCell>
        <mxCell id="MbIMBQDH0H3NFTRxCK3x-65" value="&amp;lt;&amp;gt;" style="edgeLabel;html=1;align=center;verticalAlign=middle;resizable=0;points=[];" vertex="1" connectable="0" parent="MbIMBQDH0H3NFTRxCK3x-56">
          <mxGeometry x="0.7135" y="1" relative="1" as="geometry">
            <mxPoint x="-1" as="offset" />
          </mxGeometry>
        </mxCell>
        <mxCell id="MbIMBQDH0H3NFTRxCK3x-66" value="*" style="edgeLabel;html=1;align=center;verticalAlign=middle;resizable=0;points=[];" vertex="1" connectable="0" parent="MbIMBQDH0H3NFTRxCK3x-56">
          <mxGeometry x="-0.4957" y="-1" relative="1" as="geometry">
            <mxPoint x="1" as="offset" />
          </mxGeometry>
        </mxCell>
        <mxCell id="MbIMBQDH0H3NFTRxCK3x-57" style="edgeStyle=orthogonalEdgeStyle;rounded=0;orthogonalLoop=1;jettySize=auto;html=1;entryX=0.851;entryY=-0.019;entryDx=0;entryDy=0;entryPerimeter=0;" edge="1" parent="1" target="MbIMBQDH0H3NFTRxCK3x-48">
          <mxGeometry relative="1" as="geometry">
            <mxPoint x="770" y="-370" as="targetPoint" />
            <mxPoint x="292" y="-817.5172413793102" as="sourcePoint" />
          </mxGeometry>
        </mxCell>
        <mxCell id="MbIMBQDH0H3NFTRxCK3x-63" value="*" style="edgeLabel;html=1;align=center;verticalAlign=middle;resizable=0;points=[];" vertex="1" connectable="0" parent="MbIMBQDH0H3NFTRxCK3x-57">
          <mxGeometry x="0.1376" relative="1" as="geometry">
            <mxPoint as="offset" />
          </mxGeometry>
        </mxCell>
        <mxCell id="MbIMBQDH0H3NFTRxCK3x-64" value="&amp;lt;&amp;gt;" style="edgeLabel;html=1;align=center;verticalAlign=middle;resizable=0;points=[];" vertex="1" connectable="0" parent="MbIMBQDH0H3NFTRxCK3x-57">
          <mxGeometry x="0.8967" relative="1" as="geometry">
            <mxPoint as="offset" />
          </mxGeometry>
        </mxCell>
        <mxCell id="MbIMBQDH0H3NFTRxCK3x-58" style="edgeStyle=orthogonalEdgeStyle;rounded=0;orthogonalLoop=1;jettySize=auto;html=1;entryX=0.131;entryY=0.006;entryDx=0;entryDy=0;entryPerimeter=0;" edge="1" parent="1" target="MbIMBQDH0H3NFTRxCK3x-45">
          <mxGeometry relative="1" as="geometry">
            <mxPoint x="10" y="-812.5172413793102" as="sourcePoint" />
            <mxPoint x="-434.49999999999955" y="-349.5780000000002" as="targetPoint" />
          </mxGeometry>
        </mxCell>
        <mxCell id="MbIMBQDH0H3NFTRxCK3x-74" value="*" style="edgeLabel;html=1;align=center;verticalAlign=middle;resizable=0;points=[];" vertex="1" connectable="0" parent="MbIMBQDH0H3NFTRxCK3x-58">
          <mxGeometry x="-0.1882" y="-2" relative="1" as="geometry">
            <mxPoint y="3" as="offset" />
          </mxGeometry>
        </mxCell>
        <mxCell id="MbIMBQDH0H3NFTRxCK3x-75" value="&amp;lt;&amp;gt;" style="edgeLabel;html=1;align=center;verticalAlign=middle;resizable=0;points=[];" vertex="1" connectable="0" parent="MbIMBQDH0H3NFTRxCK3x-58">
          <mxGeometry x="0.8793" relative="1" as="geometry">
            <mxPoint as="offset" />
          </mxGeometry>
        </mxCell>
        <mxCell id="MbIMBQDH0H3NFTRxCK3x-76" style="edgeStyle=orthogonalEdgeStyle;rounded=0;orthogonalLoop=1;jettySize=auto;html=1;entryX=0.5;entryY=0;entryDx=0;entryDy=0;" edge="1" parent="1" source="HnynXK6BrLuGzu9qscMR-127" target="HnynXK6BrLuGzu9qscMR-117">
          <mxGeometry relative="1" as="geometry" />
        </mxCell>
      </root>
    </mxGraphModel>
  </diagram>
</mxfile>
